<svg width="30" height="30" viewBox="0 0 30 30" fill="none" xmlns="http://www.w3.org/2000/svg">
<rect width="30" height="30" rx="2" fill="#8AADF4"/>
<path d="M9.1665 15C9.1665 13.3501 9.1665 12.5251 9.67907 12.0126C10.1916 11.5 11.0166 11.5 12.6665 11.5H15.5832C17.2331 11.5 18.058 11.5 18.5706 12.0126C19.0832 12.5251 19.0832 13.3501 19.0832 15C19.0832 16.6499 19.0832 17.4748 18.5706 17.9874C18.058 18.5 17.2331 18.5 15.5832 18.5H12.6665C11.0166 18.5 10.1916 18.5 9.67907 17.9874C9.1665 17.4748 9.1665 16.6499 9.1665 15Z" stroke="#181926" stroke-linecap="round"/>
<path d="M19.0835 13.5416L19.6827 13.6415C20.0801 13.7077 20.2788 13.7408 20.4296 13.8372C20.5779 13.9319 20.6942 14.0692 20.7633 14.2311C20.8335 14.3956 20.8335 14.5971 20.8335 15C20.8335 15.4029 20.8335 15.6043 20.7633 15.7689C20.6942 15.9307 20.5779 16.068 20.4296 16.1627C20.2788 16.2591 20.0801 16.2922 19.6827 16.3584L19.0835 16.4583" stroke="#181926" stroke-linecap="round"/>
<path d="M11.5 13.8334V16.1667" stroke="#181926" stroke-linecap="round"/>
<path d="M13.25 13.8334V16.1667" stroke="#181926" stroke-linecap="round"/>
<path d="M15 13.8334V16.1667" stroke="#181926" stroke-linecap="round"/>
<path d="M16.75 13.8334V16.1667" stroke="#181926" stroke-linecap="round"/>
</svg>
