<svg width="30" height="30" viewBox="0 0 30 30" fill="none" xmlns="http://www.w3.org/2000/svg">
<rect width="30" height="30" rx="2" fill="#C6A0F6"/>
<path d="M17.3332 9.16663V11.5M12.6665 9.16663V11.5" stroke="#181926" stroke-linecap="round" stroke-linejoin="round"/>
<path d="M15.5833 10.3334H14.4167C12.2168 10.3334 11.1168 10.3334 10.4334 11.0168C9.75 11.7002 9.75 12.8002 9.75 15V16.1667C9.75 18.3666 9.75 19.4666 10.4334 20.1499C11.1168 20.8334 12.2168 20.8334 14.4167 20.8334H15.5833C17.7832 20.8334 18.8832 20.8334 19.5666 20.1499C20.25 19.4666 20.25 18.3666 20.25 16.1667V15C20.25 12.8002 20.25 11.7002 19.5666 11.0168C18.8832 10.3334 17.7832 10.3334 15.5833 10.3334Z" stroke="#181926" stroke-linecap="round" stroke-linejoin="round"/>
<path d="M9.75 13.8334H20.25" stroke="#181926" stroke-linecap="round" stroke-linejoin="round"/>
<path d="M14.9972 16.1666H15.0025M14.9972 18.5H15.0025M17.3279 16.1666H17.3332M12.6665 16.1666H12.6717M12.6665 18.5H12.6717" stroke="#181926" stroke-width="1.33333" stroke-linecap="round" stroke-linejoin="round"/>
</svg>
