<svg width="30" height="30" viewBox="0 0 30 30" fill="none" xmlns="http://www.w3.org/2000/svg">
<rect width="30" height="30" rx="2" fill="#A6DA95"/>
<path d="M16.1665 16.6412V13.3588C16.1665 11.5241 16.1665 10.6068 15.6267 10.3785C15.087 10.1502 14.4517 10.7988 13.1812 12.0962C12.5232 12.768 12.1478 12.9168 11.2117 12.9168C10.393 12.9168 9.98366 12.9168 9.68961 13.1174C9.07921 13.5339 9.17148 14.3479 9.17148 15C9.17148 15.6522 9.07921 16.4662 9.68961 16.8827C9.98366 17.0833 10.393 17.0833 11.2117 17.0833C12.1478 17.0833 12.5232 17.2321 13.1812 17.9039C14.4517 19.2013 15.087 19.8499 15.6267 19.6216C16.1665 19.3933 16.1665 18.4759 16.1665 16.6412Z" stroke="#181926" stroke-linecap="round" stroke-linejoin="round"/>
<path d="M17.9165 13.25C18.2813 13.7281 18.4998 14.337 18.4998 15C18.4998 15.663 18.2813 16.2718 17.9165 16.75" stroke="#181926" stroke-linecap="round" stroke-linejoin="round"/>
<path d="M19.6665 12.0834C20.3961 12.8803 20.8332 13.895 20.8332 15C20.8332 16.105 20.3961 17.1198 19.6665 17.9167" stroke="#181926" stroke-linecap="round" stroke-linejoin="round"/>
</svg>
