<svg width="30" height="30" viewBox="0 0 30 30" fill="none" xmlns="http://www.w3.org/2000/svg">
<rect width="30" height="30" rx="2" fill="#F5BDE6"/>
<path d="M10.625 15C10.625 13.0823 10.625 12.1235 11.1546 11.4781C11.2516 11.3599 11.3599 11.2516 11.4781 11.1546C12.1235 10.625 13.0823 10.625 15 10.625C16.9177 10.625 17.8765 10.625 18.5219 11.1546C18.6401 11.2516 18.7484 11.3599 18.8453 11.4781C19.375 12.1235 19.375 13.0823 19.375 15C19.375 16.9177 19.375 17.8765 18.8453 18.5219C18.7484 18.6401 18.6401 18.7484 18.5219 18.8453C17.8765 19.375 16.9177 19.375 15 19.375C13.0823 19.375 12.1235 19.375 11.4781 18.8453C11.3599 18.7484 11.2516 18.6401 11.1546 18.5219C10.625 17.8765 10.625 16.9177 10.625 15Z" stroke="#181926"/>
<path d="M13.25 20.8334H16.75" stroke="#181926" stroke-linecap="round"/>
<path d="M13.25 9.16663H16.75" stroke="#181926" stroke-linecap="round"/>
<path d="M13.8335 13.8333L15.5835 15.5833M16.7502 13.25L14.4168 15.5833" stroke="#181926" stroke-linecap="round" stroke-linejoin="round"/>
</svg>
